<svg width="20" height="20" viewBox="0 0 20 20" fill="none" xmlns="http://www.w3.org/2000/svg">
<path d="M2.5 2.5L17.5 17.5M12.5 9.16667V8.33333L16.2942 6.43667C16.4212 6.3732 16.5623 6.34323 16.7042 6.34962C16.846 6.35601 16.9839 6.39854 17.1047 6.47317C17.2255 6.5478 17.3252 6.65206 17.3944 6.77606C17.4636 6.90006 17.4999 7.03967 17.5 7.18167V12.8183C17.5 12.992 17.4459 13.1613 17.345 13.3026C17.2442 13.4439 17.1017 13.5502 16.9375 13.6067" stroke="#F43F5E" stroke-width="2" stroke-linecap="round" stroke-linejoin="round"/>
<path d="M8.33333 5H10.8333C11.2754 5 11.6993 5.17559 12.0118 5.48816C12.3244 5.80072 12.5 6.22464 12.5 6.66667V9.16667M12.5 12.5V13.3333C12.5 13.7754 12.3244 14.1993 12.0118 14.5118C11.6993 14.8244 11.2754 15 10.8333 15H4.16667C3.72464 15 3.30072 14.8244 2.98816 14.5118C2.67559 14.1993 2.5 13.7754 2.5 13.3333V6.66667C2.5 6.22464 2.67559 5.80072 2.98816 5.48816C3.30072 5.17559 3.72464 5 4.16667 5H5" stroke="#F43F5E" stroke-width="2" stroke-linecap="round" stroke-linejoin="round"/>
</svg>
