<svg width="60" height="60" viewBox="0 0 60 60" fill="none" xmlns="http://www.w3.org/2000/svg">
<path d="M49.8504 23.4417C48.4654 20.189 46.3031 17.3261 43.5534 15.1041C40.8036 12.8822 37.5505 11.3692 34.0795 10.698L37.215 5.68135L34.035 3.69385L29.8977 10.3135C25.6834 10.3331 21.5672 11.587 18.0576 13.9201C14.5479 16.2532 11.7987 19.5634 10.1496 23.4417C7.9407 23.4837 5.83643 24.3907 4.28912 25.9677C2.74181 27.5447 1.875 29.6658 1.875 31.8751C1.875 34.0844 2.74181 36.2055 4.28912 37.7825C5.83643 39.3595 7.9407 40.2665 10.1496 40.3085C11.8057 44.2028 14.5707 47.5239 18.1003 49.8584C21.6299 52.1929 25.7682 53.4376 30 53.4376C34.2318 53.4376 38.3701 52.1929 41.8997 49.8584C45.4293 47.5239 48.1943 44.2028 49.8504 40.3085C52.0593 40.2665 54.1636 39.3595 55.7109 37.7825C57.2582 36.2055 58.125 34.0844 58.125 31.8751C58.125 29.6658 57.2582 27.5447 55.7109 25.9677C54.1636 24.3907 52.0593 23.4837 49.8504 23.4417ZM53.0323 35.1575C52.1746 36.0347 51.0057 36.5383 49.7791 36.5592L47.3504 36.6054L46.3997 38.8406C45.0317 42.0582 42.7475 44.8023 39.8315 46.7312C36.9154 48.6601 33.4964 49.6885 30.0001 49.6885C26.5038 49.6885 23.0847 48.6601 20.1687 46.7312C17.2526 44.8023 14.9684 42.0582 13.6004 38.8406L12.6496 36.6054L10.2209 36.5592C8.99375 36.5362 7.82464 36.0326 6.96494 35.1567C6.10524 34.2808 5.62361 33.1024 5.62361 31.8751C5.62361 30.6478 6.10524 29.4694 6.96494 28.5935C7.82464 27.7176 8.99375 27.214 10.2209 27.191L12.6496 27.1448L13.6004 24.9096C14.9684 21.6921 17.2527 18.948 20.1687 17.0192C23.0848 15.0903 26.5038 14.0618 30.0001 14.0618C33.4963 14.0618 36.9154 15.0903 39.8314 17.0192C42.7475 18.948 45.0317 21.6921 46.3997 24.9096L47.3504 27.1448L49.7791 27.191C50.6944 27.2083 51.5845 27.4934 52.3396 28.011C53.0946 28.5287 53.6814 29.2562 54.0274 30.1037C54.3735 30.9512 54.4637 31.8815 54.2868 32.7796C54.11 33.6778 53.6738 34.5045 53.0323 35.1575Z" fill="#34D399"/>
<path d="M19.6875 27.1875H24.375V31.875H19.6875V27.1875ZM35.625 27.1875H40.3125V31.875H35.625V27.1875ZM30 45C31.2311 45 32.4502 44.7575 33.5877 44.2864C34.7251 43.8152 35.7586 43.1247 36.6291 42.2541C37.4997 41.3836 38.1902 40.3501 38.6614 39.2127C39.1325 38.0752 39.375 36.8561 39.375 35.625H20.625C20.625 36.8561 20.8675 38.0752 21.3386 39.2127C21.8098 40.3501 22.5003 41.3836 23.3709 42.2541C25.129 44.0123 27.5136 45 30 45Z" fill="#34D399"/>
</svg>
