<svg width="60" height="60" viewBox="0 0 60 60" fill="none" xmlns="http://www.w3.org/2000/svg">
<path d="M30.7493 41.678C31.8765 41.8331 33.5917 41.1709 34.9483 40.1341C35.6718 39.5785 36.321 38.897 36.7894 38.209" stroke="#34D399" stroke-width="4" stroke-linecap="round" stroke-linejoin="round"/>
<path d="M50.5626 25.725C50.849 27.1074 50.9933 28.5308 50.9954 29.995C50.9914 32.9307 50.3717 35.8329 49.1764 38.5142C47.9812 41.1955 46.2369 43.5963 44.0562 45.5617C41.8755 47.5271 39.3069 49.0133 36.5162 49.9243C33.7255 50.8354 30.7747 51.1511 27.8544 50.8511C24.9342 50.551 22.1093 49.6418 19.5621 48.1823C17.015 46.7228 14.8023 44.7453 13.0668 42.3775C11.3314 40.0098 10.1118 37.3044 9.48675 34.436C8.86172 31.5677 8.84517 28.6001 9.43817 25.725M48.6311 20.305C46.8576 16.8962 44.1825 14.0394 40.8974 12.046C37.6122 10.0526 33.843 8.99898 30.0004 9C26.1578 8.99898 22.3886 10.0526 19.1034 12.046C15.8183 14.0394 13.1432 16.8962 11.3697 20.305" stroke="#34D399" stroke-width="4" stroke-linecap="round" stroke-linejoin="round"/>
<path d="M9.00513 22.7277V20.3052H30.0002V22.7277C30.0002 25.5118 28.8942 28.1819 26.9255 30.1506C24.9569 32.1192 22.2868 33.2252 19.5027 33.2252C16.7185 33.2252 14.0484 32.1192 12.0798 30.1506C10.1111 28.1819 9.00513 25.5118 9.00513 22.7277ZM30.0002 22.7277V20.3052H50.9952V22.7277C50.9952 25.5118 49.8892 28.1819 47.9206 30.1506C45.9519 32.1192 43.2818 33.2252 40.4977 33.2252C37.7136 33.2252 35.0435 32.1192 33.0748 30.1506C31.1062 28.1819 30.0002 25.5118 30.0002 22.7277Z" fill="#34D399"/>
<path d="M30.0002 20.3052H9.00513V22.7277C9.00513 25.5118 10.1111 28.1819 12.0798 30.1506C14.0484 32.1192 16.7185 33.2252 19.5027 33.2252C22.2868 33.2252 24.9569 32.1192 26.9255 30.1506C28.8942 28.1819 30.0002 25.5118 30.0002 22.7277M30.0002 20.3052V22.7277M30.0002 20.3052H50.9952V22.7277C50.9952 25.5118 49.8892 28.1819 47.9206 30.1506C45.9519 32.1192 43.2818 33.2252 40.4977 33.2252C37.7136 33.2252 35.0435 32.1192 33.0748 30.1506C31.1062 28.1819 30.0002 25.5118 30.0002 22.7277" stroke="#34D399" stroke-width="4" stroke-linecap="round" stroke-linejoin="round"/>
</svg>
