<svg width="60" height="60" viewBox="0 0 60 60" fill="none" xmlns="http://www.w3.org/2000/svg">
<path d="M18.5 25.3281C18.5 25.9817 18.7596 26.6085 19.2218 27.0706C19.6839 27.5328 20.3107 27.7924 20.9643 27.7924C21.6179 27.7924 22.2447 27.5328 22.7068 27.0706C23.1689 26.6085 23.4286 25.9817 23.4286 25.3281C23.4286 24.6746 23.1689 24.0478 22.7068 23.5856C22.2447 23.1235 21.6179 22.8638 20.9643 22.8638C20.3107 22.8638 19.6839 23.1235 19.2218 23.5856C18.7596 24.0478 18.5 24.6746 18.5 25.3281ZM36.5714 25.3281C36.5714 25.9817 36.8311 26.6085 37.2932 27.0706C37.7553 27.5328 38.3821 27.7924 39.0357 27.7924C39.6893 27.7924 40.3161 27.5328 40.7782 27.0706C41.2404 26.6085 41.5 25.9817 41.5 25.3281C41.5 24.6746 41.2404 24.0478 40.7782 23.5856C40.3161 23.1235 39.6893 22.8638 39.0357 22.8638C38.3821 22.8638 37.7553 23.1235 37.2932 23.5856C36.8311 24.0478 36.5714 24.6746 36.5714 25.3281ZM30 7C17.2987 7 7 17.2987 7 30C7 42.7013 17.2987 53 30 53C42.7013 53 53 42.7013 53 30C53 17.2987 42.7013 7 30 7ZM43.5022 43.5022C41.7464 45.258 39.7031 46.6339 37.4288 47.5991C35.0826 48.5951 32.5824 49.0982 30 49.0982C27.4176 49.0982 24.9174 48.5951 22.5661 47.5991C20.2952 46.64 18.2324 45.2486 16.4926 43.5022C14.7368 41.7464 13.3609 39.7031 12.3958 37.4288C11.4049 35.0826 10.9018 32.5824 10.9018 30C10.9018 27.4176 11.4049 24.9174 12.4009 22.5661C13.36 20.2952 14.7514 18.2324 16.4978 16.4926C18.2536 14.7368 20.2969 13.3609 22.5712 12.3958C24.9174 11.4049 27.4176 10.9018 30 10.9018C32.5824 10.9018 35.0826 11.4049 37.4339 12.4009C39.7048 13.36 41.7676 14.7514 43.5074 16.4978C45.2632 18.2536 46.6391 20.2969 47.6042 22.5712C48.5951 24.9174 49.0982 27.4176 49.0982 30C49.0982 32.5824 48.5951 35.0826 47.5991 37.4339C46.6412 39.7039 45.2496 41.7652 43.5022 43.5022ZM37.8036 31.0781H35.3342C35.1185 31.0781 34.9337 31.2424 34.9183 31.458C34.7232 33.9993 32.5926 36.0067 30 36.0067C27.4074 36.0067 25.2717 33.9993 25.0817 31.458C25.0663 31.2424 24.8815 31.0781 24.6658 31.0781H22.1964C22.1407 31.0781 22.0856 31.0893 22.0344 31.1112C21.9831 31.1331 21.9369 31.1652 21.8985 31.2056C21.8601 31.2459 21.8303 31.2937 21.8109 31.3459C21.7915 31.3981 21.7829 31.4537 21.7857 31.5094C22.0116 35.8373 25.6105 39.2924 30 39.2924C34.3895 39.2924 37.9884 35.8373 38.2143 31.5094C38.2171 31.4537 38.2085 31.3981 38.1891 31.3459C38.1697 31.2937 38.1399 31.2459 38.1015 31.2056C38.0631 31.1652 38.0169 31.1331 37.9656 31.1112C37.9144 31.0893 37.8593 31.0781 37.8036 31.0781Z" fill="#34D399"/>
</svg>
