<svg width="20" height="20" viewBox="0 0 20 20" fill="none" xmlns="http://www.w3.org/2000/svg">
<path d="M9.99984 15.8333V18.3333M9.99984 15.8333C11.5469 15.8333 13.0307 15.2187 14.1246 14.1248C15.2186 13.0308 15.8332 11.5471 15.8332 9.99998V8.33331M9.99984 15.8333C8.45274 15.8333 6.96901 15.2187 5.87505 14.1248C4.78109 13.0308 4.1665 11.5471 4.1665 9.99998V8.33331" stroke="#6EE7B7" stroke-width="2" stroke-linecap="round" stroke-linejoin="round"/>
<path d="M12.5 4.16666C12.5 2.78594 11.3807 1.66666 10 1.66666C8.61929 1.66666 7.5 2.78594 7.5 4.16666V9.99999C7.5 11.3807 8.61929 12.5 10 12.5C11.3807 12.5 12.5 11.3807 12.5 9.99999V4.16666Z" stroke="#6EE7B7" stroke-width="2" stroke-linecap="round" stroke-linejoin="round"/>
</svg>
