<svg width="20" height="20" viewBox="0 0 20 20" fill="none" xmlns="http://www.w3.org/2000/svg">
<g clip-path="url(#clip0_217_891)">
<path d="M1.6665 1.66667L18.3332 18.3333M15.7415 11.025C15.8022 10.6867 15.8329 10.3437 15.8332 10V8.33334M4.1665 8.33334V10C4.14955 11.166 4.48244 12.3103 5.1222 13.2852C5.76196 14.2601 6.67924 15.0209 7.75563 15.4694C8.83203 15.9179 10.0181 16.0335 11.1609 15.8013C12.3036 15.5691 13.3505 14.9997 14.1665 14.1667M12.4998 7.78334V4.16667C12.4965 3.60531 12.3042 3.06143 11.9541 2.62261C11.604 2.18378 11.1164 1.87556 10.5699 1.74758C10.0233 1.61959 9.44952 1.67929 8.94099 1.91706C8.43246 2.15483 8.01876 2.55684 7.7665 3.05834" stroke="#F43F5E" stroke-width="2" stroke-linecap="round" stroke-linejoin="round"/>
<path d="M7.5 7.5V10C7.50043 10.4941 7.64729 10.9771 7.92203 11.3878C8.19676 11.7985 8.58704 12.1186 9.04359 12.3076C9.50013 12.4967 10.0025 12.5462 10.4871 12.4499C10.9718 12.3536 11.417 12.1159 11.7667 11.7667M10 15.8333V18.3333" stroke="#F43F5E" stroke-width="2" stroke-linecap="round" stroke-linejoin="round"/>
</g>
<defs>
<clipPath id="clip0_217_891">
<rect width="20" height="20" fill="white"/>
</clipPath>
</defs>
</svg>
