<svg width="104" height="36" viewBox="0 0 104 36" fill="none" xmlns="http://www.w3.org/2000/svg">
<g clip-path="url(#clip0_212_2007)">
<path d="M36.6142 11.4857L34.2905 24.5238H38.9571L41.2809 11.4857H36.6142ZM42.8809 11.4857L42.2619 14.9714H47.9476L40.5571 24.5238H45.8619L49.8904 19.3238L48.9667 24.5238H53.6333L54.7952 18.0095H50.9095L55.9571 11.4857H42.8905H42.8809ZM35.0048 11.4857H29.7L32.3952 8H27.1L22.0523 14.5142H27.3571L19.6143 24.5142H24.919L28.9476 19.3143L28.0238 24.5142H32.6905L33.8524 18H29.9666L35.0048 11.4762V11.4857ZM57.5571 11.4857L55.2333 24.5238H59.9L62.2238 11.4857H57.5571ZM63.8238 11.4857L63.2048 14.9714H68.8619L61.4999 24.5238H66.7952L70.7762 19.3619L69.8524 24.5238H74.519L75.6809 18.0095H71.8143L76.8429 11.4857H63.8143H63.8238ZM81.3571 21.0285L83.0619 11.4762H78.4048L76.0809 24.5142H79.1L78.4809 28H83.1476L84.3857 21.0285H81.3666H81.3571Z" fill="#A1A1AA"/>
</g>
<defs>
<clipPath id="clip0_212_2007">
<rect width="64.7714" height="20" fill="white" transform="translate(19.6143 8)"/>
</clipPath>
</defs>
</svg>
