<svg width="40" height="40" viewBox="0 0 40 40" fill="none" xmlns="http://www.w3.org/2000/svg">
<rect width="40" height="40" rx="8" fill="#FAFAFA"/>
<path d="M33.0741 17.3887H32.0001V17.3334H20.0001V22.6667H27.5354C26.4361 25.7714 23.4821 28.0001 20.0001 28.0001C15.5821 28.0001 12.0001 24.4181 12.0001 20.0001C12.0001 15.5821 15.5821 12.0001 20.0001 12.0001C22.0394 12.0001 23.8947 12.7694 25.3074 14.0261L29.0787 10.2547C26.6974 8.03541 23.5121 6.66675 20.0001 6.66675C12.6367 6.66675 6.66675 12.6367 6.66675 20.0001C6.66675 27.3634 12.6367 33.3334 20.0001 33.3334C27.3634 33.3334 33.3334 27.3634 33.3334 20.0001C33.3334 19.1061 33.2414 18.2334 33.0741 17.3887Z" fill="#FBC02D"/>
<path d="M8.2041 13.7941L12.5848 17.0067C13.7701 14.0721 16.6408 12.0001 20.0001 12.0001C22.0394 12.0001 23.8948 12.7694 25.3074 14.0261L29.0788 10.2547C26.6974 8.03541 23.5121 6.66675 20.0001 6.66675C14.8788 6.66675 10.4374 9.55808 8.2041 13.7941Z" fill="#E53935"/>
<path d="M19.9999 33.3333C23.4439 33.3333 26.5732 32.0153 28.9392 29.872L24.8125 26.38C23.4739 27.394 21.8099 28 19.9999 28C16.5319 28 13.5872 25.7886 12.4779 22.7026L8.12988 26.0526C10.3365 30.3706 14.8179 33.3333 19.9999 33.3333Z" fill="#4CAF50"/>
<path d="M33.074 17.3886L33.0633 17.3333H32H20V22.6666H27.5353C27.0073 24.1579 26.048 25.4439 24.8107 26.3806L24.8127 26.3793L28.9393 29.8713C28.6473 30.1366 33.3333 26.6666 33.3333 19.9999C33.3333 19.1059 33.2413 18.2333 33.074 17.3886Z" fill="#1565C0"/>
</svg>
