<svg width="40" height="40" viewBox="0 0 40 40" fill="none" xmlns="http://www.w3.org/2000/svg">
<g clip-path="url(#clip0_348_1655)">
<path d="M40 36.875C40 38.6009 38.6009 40 36.875 40H3.125C1.39906 40 0 38.6009 0 36.875V3.125C0 1.39906 1.39906 0 3.125 0H36.875C38.6009 0 40 1.39906 40 3.125V36.875Z" fill="#FFE812"/>
<path d="M20 5.625C11.0253 5.625 3.75 11.3614 3.75 18.4375C3.75 23.0123 6.79156 27.0266 11.3669 29.2933C11.118 30.1517 9.76734 34.8158 9.71359 35.1822C9.71359 35.1822 9.68125 35.4575 9.85953 35.5625C10.0378 35.6675 10.2475 35.5859 10.2475 35.5859C10.7587 35.5145 16.1761 31.7092 17.1137 31.0484C18.0505 31.1811 19.015 31.25 20 31.25C28.9747 31.25 36.25 25.5137 36.25 18.4375C36.25 11.3614 28.9747 5.625 20 5.625Z" fill="black"/>
<path d="M11.0156 22.9102C10.4986 22.9102 10.0781 22.5086 10.0781 22.0148V16.4453H8.61531C8.10797 16.4453 7.69531 16.0334 7.69531 15.5273C7.69531 15.0212 8.10813 14.6094 8.61531 14.6094H13.4159C13.9233 14.6094 14.3359 15.0212 14.3359 15.5273C14.3359 16.0334 13.9231 16.4453 13.4159 16.4453H11.9531V22.0148C11.9531 22.5086 11.5327 22.9102 11.0156 22.9102ZM19.2363 22.898C18.8453 22.898 18.5463 22.7392 18.4561 22.4839L17.9919 21.2686L15.1331 21.2684L14.6686 22.4845C14.5788 22.7394 14.2798 22.898 13.8889 22.898C13.6833 22.8982 13.48 22.8541 13.293 22.7686C13.0345 22.6494 12.7861 22.3216 13.0708 21.4373L15.3133 15.5348C15.4713 15.0859 15.9511 14.6234 16.5617 14.6095C17.1741 14.6233 17.6539 15.0859 17.8122 15.5358L20.0538 21.4356C20.3391 22.3219 20.0906 22.6498 19.8322 22.7688C19.6451 22.8541 19.4419 22.8981 19.2363 22.898ZM17.4989 19.608L16.5625 16.9478L15.6261 19.608H17.4989ZM21.5625 22.7734C21.067 22.7734 20.6641 22.3878 20.6641 21.9141V15.5469C20.6641 15.0298 21.0934 14.6094 21.6211 14.6094C22.1488 14.6094 22.5781 15.0298 22.5781 15.5469V21.0547H24.5703C25.0658 21.0547 25.4688 21.4403 25.4688 21.9141C25.4688 22.3878 25.0658 22.7734 24.5703 22.7734H21.5625ZM26.7709 22.898C26.2539 22.898 25.8334 22.4775 25.8334 21.9605V15.5469C25.8334 15.0298 26.2539 14.6094 26.7709 14.6094C27.288 14.6094 27.7084 15.0298 27.7084 15.5469V17.5619L30.3241 14.9462C30.4586 14.8117 30.6434 14.7377 30.8441 14.7377C31.0781 14.7377 31.3131 14.8386 31.4892 15.0145C31.6534 15.1786 31.7514 15.3897 31.7648 15.6089C31.7784 15.83 31.7048 16.0327 31.558 16.1797L29.4216 18.3158L31.7292 21.373C31.8037 21.471 31.858 21.5829 31.8889 21.7022C31.9198 21.8214 31.9267 21.9456 31.9092 22.0675C31.8925 22.1895 31.8518 22.307 31.7893 22.4131C31.7269 22.5192 31.644 22.6119 31.5455 22.6858C31.3834 22.809 31.1852 22.8755 30.9816 22.875C30.8363 22.8757 30.6929 22.8423 30.5629 22.7776C30.4328 22.7129 30.3197 22.6186 30.2327 22.5023L28.0341 19.5892L27.7088 19.9145V21.96C27.7085 22.2086 27.6096 22.447 27.4338 22.6229C27.258 22.7987 27.0196 22.8976 26.7709 22.898Z" fill="#FFE812"/>
</g>
<defs>
<clipPath id="clip0_348_1655">
<rect width="40" height="40" rx="8" fill="white"/>
</clipPath>
</defs>
</svg>
