<svg width="104" height="36" viewBox="0 0 104 36" fill="none" xmlns="http://www.w3.org/2000/svg">
<path fill-rule="evenodd" clip-rule="evenodd" d="M82.3701 14.458V24.2497L76.9013 28H73.5393V26.3331L71.0171 28H68.0747V26.3331L66.1832 28H60.7191L59.0381 26.3331L58.6175 28L53.7944 27.9872L51.8926 26.3331L51.6825 28L46.2184 27.9872L46.0083 26.3331L44.5374 27.9872L36.131 28L34.4495 27.1666V28H29.8257L24.7818 24.8749L21.6294 21.7498V8H28.1443L31.2967 11.1251H45.5878V8H57.3571V11.1251H60.2994V12.792L61.9809 11.1251H65.5539L68.7063 8H75.4312V11.1251H79.0042L82.3701 14.458ZM29.8257 12.5829H26.8834V9.45777H23.1003V21.1251L25.412 23.625H29.8257V19.6665H26.8834V16.3335H29.8257V12.5829ZM45.5878 12.5829H41.8047V19.6669H40.3338V12.5829H36.7608V19.6669H35.2898V12.5829H31.2967V23.625H43.066L45.5878 21.1251V12.5829ZM50.6317 12.5829H47.0587V23.625H50.6317V12.5829ZM50.6317 9.45777H47.0587V11.1247H50.6317V9.45777ZM58.828 12.5829H55.8857V9.45777H52.1031V21.1251L54.4148 23.625H58.8272V19.6665H55.8848V16.3335H58.8272L58.828 12.5829ZM68.4953 12.5829H62.6111L60.2994 14.8745V21.1251L62.8212 23.625H68.4949V19.6665H64.2917V16.3335H68.4949L68.4953 12.5829ZM80.8949 14.8745L78.3731 12.5829H73.9598V9.45777H69.9667V23.625H73.9598V16.3327H76.9022V23.6245H80.8953L80.8949 14.8745Z" fill="#A1A1AA"/>
</svg>
