<svg width="104" height="36" viewBox="0 0 104 36" fill="none" xmlns="http://www.w3.org/2000/svg">
<g clip-path="url(#clip0_212_1941)">
<path d="M23.3936 8.62378C23.3936 8.62378 31.7712 8.62423 33.8594 9.18433C35.0127 9.49305 35.9189 10.3992 36.2275 11.5525C36.7829 13.6316 36.7881 17.9614 36.7881 17.9998C36.7881 17.9998 36.7877 22.3597 36.2275 24.448C35.9188 25.6012 35.0126 26.5075 33.8594 26.8162C31.771 27.3763 23.3936 27.3767 23.3936 27.3767C23.3279 27.3767 15.0092 27.374 12.9287 26.8162C11.7755 26.5075 10.8693 25.6012 10.5605 24.448C10.0004 22.3597 10 17.9998 10 17.9998C10 17.9613 10.003 13.6315 10.5605 11.5525C10.8693 10.3992 11.7754 9.49305 12.9287 9.18433C15.009 8.62648 23.3279 8.62379 23.3936 8.62378ZM20.7129 22.0183L27.6719 18.0007L20.7129 13.9822V22.0183Z" fill="#A1A1AA"/>
<path d="M42.4438 20.8162L39.436 9.95374H42.0602L43.1142 14.8778C43.3832 16.0906 43.5795 17.1248 43.7074 17.9804H43.7845C43.8728 17.3674 44.0713 16.3398 44.3778 14.8954L45.4693 9.95374H48.0934L45.0481 20.8162V26.027H42.4417V20.8162H42.4438Z" fill="#A1A1AA"/>
<path d="M48.8829 25.6826C48.3537 25.3254 47.9765 24.7696 47.7516 24.0155C47.5289 23.2614 47.4165 22.2603 47.4165 21.0077V19.3031C47.4165 18.0396 47.5444 17.023 47.8002 16.2579C48.056 15.4927 48.4551 14.9326 48.9975 14.582C49.54 14.2313 50.2523 14.0549 51.1344 14.0549C52.0032 14.0549 52.6978 14.2335 53.2225 14.5908C53.7452 14.948 54.1289 15.5081 54.3714 16.2667C54.614 17.0275 54.7353 18.0396 54.7353 19.3031V21.0077C54.7353 22.2603 54.6162 23.2658 54.3803 24.0243C54.1443 24.7851 53.7607 25.3408 53.2314 25.6914C52.7022 26.0421 51.9833 26.2185 51.077 26.2185C50.142 26.2206 49.4121 26.0398 48.8829 25.6826ZM51.851 23.8436C51.9965 23.4599 52.0715 22.8358 52.0715 21.967V18.3087C52.0715 17.4663 51.9988 16.8488 51.851 16.4607C51.7032 16.0704 51.4453 15.8764 51.0747 15.8764C50.7176 15.8764 50.464 16.0704 50.3184 16.4607C50.1707 16.851 50.0979 17.4663 50.0979 18.3087V21.967C50.0979 22.8358 50.1684 23.462 50.3096 23.8436C50.4507 24.2272 50.7043 24.4191 51.0747 24.4191C51.4453 24.4191 51.7032 24.2272 51.851 23.8436Z" fill="#A1A1AA"/>
<path d="M63.2714 26.0292H61.203L60.9737 24.5915H60.9164C60.354 25.6764 59.5116 26.2188 58.387 26.2188C57.6086 26.2188 57.0331 25.9631 56.6627 25.4537C56.2922 24.9421 56.1069 24.1439 56.1069 23.0589V14.2847H58.7509V22.9045C58.7509 23.4294 58.8082 23.802 58.9229 24.0248C59.0376 24.2475 59.2294 24.3599 59.4984 24.3599C59.7278 24.3599 59.9483 24.2894 60.16 24.1483C60.3717 24.0071 60.526 23.8285 60.6297 23.6124V14.2825H63.2714V26.0292Z" fill="#A1A1AA"/>
<path d="M70.4535 12.0813H67.8294V26.0288H65.2428V12.0813H62.6187V9.95557H70.4535V12.0813Z" fill="#A1A1AA"/>
<path d="M76.8305 26.0292H74.7621L74.5328 24.5915H74.4755C73.9132 25.6764 73.0708 26.2188 71.9461 26.2188C71.1677 26.2188 70.5922 25.9631 70.2217 25.4537C69.8513 24.9421 69.666 24.1439 69.666 23.0589V14.2847H72.31V22.9045C72.31 23.4294 72.3673 23.802 72.482 24.0248C72.5967 24.2475 72.7885 24.3599 73.0576 24.3599C73.2868 24.3599 73.5074 24.2894 73.7191 24.1483C73.9308 24.0071 74.0851 23.8285 74.1887 23.6124V14.2825H76.8305V26.0292Z" fill="#A1A1AA"/>
<path d="M85.5805 16.161C85.4195 15.4201 85.1614 14.8843 84.8043 14.5513C84.4471 14.2183 83.9553 14.0529 83.329 14.0529C82.8439 14.0529 82.3896 14.1897 81.9685 14.4653C81.5473 14.7409 81.2209 15.1004 80.9915 15.548H80.9718V9.36041H78.4248V26.0268H80.6079L80.8769 24.9154H80.9343C81.1393 25.3123 81.4458 25.6232 81.8538 25.8548C82.2617 26.0842 82.716 26.1988 83.2144 26.1988C84.1075 26.1988 84.7668 25.7865 85.188 24.9639C85.6092 24.1392 85.8208 22.8536 85.8208 21.1028V19.2438C85.8208 17.9318 85.7392 16.902 85.5805 16.161ZM83.157 20.9528C83.157 21.8083 83.1217 22.4787 83.0511 22.9639C82.9806 23.449 82.8637 23.7953 82.6961 23.9981C82.5308 24.2031 82.3058 24.3046 82.0258 24.3046C81.8075 24.3046 81.6068 24.2538 81.4215 24.1502C81.2364 24.0488 81.0864 23.8945 80.9718 23.6916V17.0255C81.0599 16.7057 81.2143 16.4455 81.4326 16.2404C81.6487 16.0354 81.8869 15.9339 82.1404 15.9339C82.4095 15.9339 82.6167 16.0398 82.7623 16.2492C82.91 16.4609 83.0115 16.8138 83.0689 17.3121C83.1261 17.8105 83.1548 18.5183 83.1548 19.4378V20.9528H83.157Z" fill="#A1A1AA"/>
<path d="M89.5717 21.6297C89.5717 22.3839 89.5937 22.9484 89.6379 23.3255C89.6819 23.7025 89.7746 23.976 89.9157 24.1503C90.0568 24.3222 90.2729 24.4082 90.5662 24.4082C90.961 24.4082 91.2344 24.2539 91.3799 23.9473C91.5277 23.6408 91.6071 23.1293 91.6203 22.4148L93.9004 22.5493C93.9136 22.6507 93.9202 22.7918 93.9202 22.9704C93.9202 24.0554 93.6225 24.8669 93.0293 25.4027C92.4362 25.9386 91.596 26.2076 90.5111 26.2076C89.2079 26.2076 88.2949 25.7996 87.7723 24.9815C87.2475 24.1635 86.9873 22.8999 86.9873 21.1887V19.1379C86.9873 17.376 87.2586 16.0882 87.801 15.2768C88.3435 14.4653 89.2718 14.0595 90.5882 14.0595C91.4946 14.0595 92.1914 14.2249 92.6765 14.5579C93.1617 14.8908 93.5034 15.4068 93.7019 16.1103C93.9004 16.8137 93.9996 17.784 93.9996 19.0232V21.0343H89.5717V21.6297ZM89.9069 16.0949C89.7723 16.2602 89.6842 16.5315 89.6379 16.9085C89.5937 17.2856 89.5717 17.8568 89.5717 18.6242V19.4665H91.5056V18.6242C91.5056 17.87 91.4792 17.2989 91.4285 16.9085C91.3777 16.5182 91.2851 16.2448 91.1505 16.0838C91.0161 15.9251 90.8088 15.8435 90.5287 15.8435C90.2465 15.8457 90.0392 15.9295 89.9069 16.0949Z" fill="#A1A1AA"/>
</g>
<defs>
<clipPath id="clip0_212_1941">
<rect width="84" height="18.7525" fill="white" transform="translate(10 8.62378)"/>
</clipPath>
</defs>
</svg>
